# xmcd
#
# Track frame offsets:
#  150
#  15555
#  34610
#  57750
#  75460
#  119992
#  137200
#  149460
#  166647
#  230250
#  258570
#  282060
#
# Disc length: 4121 seconds
#
# Revision: 5
# Processed by: cddbd v1.5.2PL0 Copyright (c) Steve Scherf et al.
# Submitted via: Collectorz.com Music Collector 6.9
#
DISCID=9f10170c
DTITLE=B.B. King and Bobby Bland - Together For The First Time...Live
DYEAR=1974
DGENRE=Blues
TTITLE0=3 O'clock Blues
TTITLE1=It's My Own Fault
TTITLE2=Driftin' Blues
TTITLE3=That's The Way Love Is
TTITLE4=I'm Sorry
TTITLE5=I'll Take Care Of You
TTITLE6=Don't Cry No More
TTITLE7=Don't Want A Soul Hangin' Around
TTITLE8=(Medley)
TTITLE9=Everybody Wants To Know Why I Sing The Blues
TTITLE10=Goin' Down Slow
TTITLE11=I Like To Live The Love
EXTD=
EXTT0=
EXTT1=
EXTT2=
EXTT3=
EXTT4=
EXTT5=
EXTT6=
EXTT7=
EXTT8=
EXTT9=
EXTT10=
EXTT11=
PLAYORDER=
